<svg width="76" height="44" viewBox="0 0 76 44" fill="none" xmlns="http://www.w3.org/2000/svg">
<rect width="76" height="30" rx="5" fill="#2174FF"/>
<path d="M13 44L19.9282 29H6.0718L13 44Z" fill="#2174FF"/>
<path d="M27.268 20.448C27.396 20.448 27.508 20.5 27.604 20.604L28.528 21.6C27.824 22.416 26.968 23.052 25.96 23.508C24.96 23.964 23.748 24.192 22.324 24.192C21.092 24.192 19.972 23.98 18.964 23.556C17.956 23.124 17.096 22.524 16.384 21.756C15.672 20.98 15.12 20.052 14.728 18.972C14.336 17.892 14.14 16.704 14.14 15.408C14.14 14.112 14.344 12.924 14.752 11.844C15.16 10.764 15.732 9.836 16.468 9.06C17.212 8.284 18.1 7.684 19.132 7.26C20.164 6.828 21.304 6.612 22.552 6.612C23.776 6.612 24.856 6.808 25.792 7.2C26.728 7.592 27.552 8.124 28.264 8.796L27.496 9.864C27.448 9.944 27.384 10.012 27.304 10.068C27.232 10.116 27.132 10.14 27.004 10.14C26.86 10.14 26.684 10.064 26.476 9.912C26.268 9.752 25.996 9.576 25.66 9.384C25.324 9.192 24.904 9.02 24.4 8.868C23.896 8.708 23.276 8.628 22.54 8.628C21.652 8.628 20.84 8.784 20.104 9.096C19.368 9.4 18.732 9.844 18.196 10.428C17.668 11.012 17.256 11.724 16.96 12.564C16.664 13.404 16.516 14.352 16.516 15.408C16.516 16.48 16.668 17.436 16.972 18.276C17.284 19.116 17.704 19.828 18.232 20.412C18.768 20.988 19.396 21.428 20.116 21.732C20.844 22.036 21.628 22.188 22.468 22.188C22.98 22.188 23.44 22.16 23.848 22.104C24.264 22.04 24.644 21.944 24.988 21.816C25.34 21.688 25.664 21.528 25.96 21.336C26.264 21.136 26.564 20.9 26.86 20.628C26.996 20.508 27.132 20.448 27.268 20.448ZM32.8713 13.464C33.3913 12.912 33.9673 12.472 34.5993 12.144C35.2313 11.816 35.9593 11.652 36.7833 11.652C37.4473 11.652 38.0313 11.764 38.5353 11.988C39.0473 12.204 39.4713 12.516 39.8073 12.924C40.1513 13.324 40.4113 13.808 40.5873 14.376C40.7633 14.944 40.8513 15.572 40.8513 16.26V24H38.7033V16.26C38.7033 15.34 38.4913 14.628 38.0673 14.124C37.6513 13.612 37.0153 13.356 36.1593 13.356C35.5273 13.356 34.9353 13.508 34.3833 13.812C33.8393 14.116 33.3353 14.528 32.8713 15.048V24H30.7233V6.324H32.8713V13.464ZM50.6941 18.528C49.7101 18.56 48.8701 18.64 48.1741 18.768C47.4861 18.888 46.9221 19.048 46.4821 19.248C46.0501 19.448 45.7341 19.684 45.5341 19.956C45.3421 20.228 45.2461 20.532 45.2461 20.868C45.2461 21.188 45.2981 21.464 45.4021 21.696C45.5061 21.928 45.6461 22.12 45.8221 22.272C46.0061 22.416 46.2181 22.524 46.4581 22.596C46.7061 22.66 46.9701 22.692 47.2501 22.692C47.6261 22.692 47.9701 22.656 48.2821 22.584C48.5941 22.504 48.8861 22.392 49.1581 22.248C49.4381 22.104 49.7021 21.932 49.9501 21.732C50.2061 21.532 50.4541 21.304 50.6941 21.048V18.528ZM43.7941 13.56C44.4661 12.912 45.1901 12.428 45.9661 12.108C46.7421 11.788 47.6021 11.628 48.5461 11.628C49.2261 11.628 49.8301 11.74 50.3581 11.964C50.8861 12.188 51.3301 12.5 51.6901 12.9C52.0501 13.3 52.3221 13.784 52.5061 14.352C52.6901 14.92 52.7821 15.544 52.7821 16.224V24H51.8341C51.6261 24 51.4661 23.968 51.3541 23.904C51.2421 23.832 51.1541 23.696 51.0901 23.496L50.8501 22.344C50.5301 22.64 50.2181 22.904 49.9141 23.136C49.6101 23.36 49.2901 23.552 48.9541 23.712C48.6181 23.864 48.2581 23.98 47.8741 24.06C47.4981 24.148 47.0781 24.192 46.6141 24.192C46.1421 24.192 45.6981 24.128 45.2821 24C44.8661 23.864 44.5021 23.664 44.1901 23.4C43.8861 23.136 43.6421 22.804 43.4581 22.404C43.2821 21.996 43.1941 21.516 43.1941 20.964C43.1941 20.484 43.3261 20.024 43.5901 19.584C43.8541 19.136 44.2821 18.74 44.8741 18.396C45.4661 18.052 46.2381 17.772 47.1901 17.556C48.1421 17.332 49.3101 17.204 50.6941 17.172V16.224C50.6941 15.28 50.4901 14.568 50.0821 14.088C49.6741 13.6 49.0781 13.356 48.2941 13.356C47.7661 13.356 47.3221 13.424 46.9621 13.56C46.6101 13.688 46.3021 13.836 46.0381 14.004C45.7821 14.164 45.5581 14.312 45.3661 14.448C45.1821 14.576 44.9981 14.64 44.8141 14.64C44.6701 14.64 44.5461 14.604 44.4421 14.532C44.3381 14.452 44.2501 14.356 44.1781 14.244L43.7941 13.56ZM59.6037 24.192C58.6437 24.192 57.9037 23.924 57.3837 23.388C56.8717 22.852 56.6157 22.08 56.6157 21.072V13.632H55.1517C55.0237 13.632 54.9157 13.596 54.8277 13.524C54.7397 13.444 54.6957 13.324 54.6957 13.164V12.312L56.6877 12.06L57.1797 8.304C57.2037 8.184 57.2557 8.088 57.3357 8.016C57.4237 7.936 57.5357 7.896 57.6717 7.896H58.7517V12.084H62.2677V13.632H58.7517V20.928C58.7517 21.44 58.8757 21.82 59.1237 22.068C59.3717 22.316 59.6917 22.44 60.0837 22.44C60.3077 22.44 60.4997 22.412 60.6597 22.356C60.8277 22.292 60.9717 22.224 61.0917 22.152C61.2117 22.08 61.3117 22.016 61.3917 21.96C61.4797 21.896 61.5557 21.864 61.6197 21.864C61.7317 21.864 61.8317 21.932 61.9197 22.068L62.5437 23.088C62.1757 23.432 61.7317 23.704 61.2117 23.904C60.6917 24.096 60.1557 24.192 59.6037 24.192Z" fill="white"/>
</svg>
